<?xml version="1.0" standalone="no"?>
<!DOCTYPE svg PUBLIC "-//W3C//DTD SVG 20010904//EN"
 "http://www.w3.org/TR/2001/REC-SVG-20010904/DTD/svg10.dtd">
<svg version="1.0" xmlns="http://www.w3.org/2000/svg"
 width="920.000000pt" height="460.000000pt" viewBox="0 0 920.000000 460.000000"
 preserveAspectRatio="xMidYMid meet">

<g transform="translate(0.000000,460.000000) scale(0.100000,-0.100000)"
fill="#000000" stroke="none">
<path d="M3583 3484 c-188 -189 -346 -344 -352 -344 -6 0 -11 46 -13 123 l-3
122 -25 -3 c-14 -2 -59 -4 -101 -5 -75 -1 -79 0 -200 61 -163 81 -193 82 -271
1 l-38 -38 0 -462 0 -461 -195 -195 c-107 -107 -195 -198 -195 -204 0 -5 171
-9 437 -9 l437 0 428 428 c236 235 432 428 438 430 5 2 156 -144 335 -325 179
-180 673 -678 1098 -1105 l773 -777 437 -2 c241 -1 441 1 444 5 4 4 -342 355
-768 781 -425 426 -776 780 -778 786 -3 11 97 119 111 119 5 0 140 -133 301
-295 l294 -295 301 0 c171 0 302 4 302 9 0 5 -271 280 -602 610 l-602 602
-208 -208 c-114 -115 -214 -209 -221 -211 -7 -1 -282 270 -611 603 -329 333
-601 605 -605 604 -3 -1 -160 -156 -348 -345z"/>
<path d="M4045 1355 c-16 -15 -25 -36 -25 -55 0 -22 -6 -33 -22 -40 l-23 -9
23 0 c21 -1 22 -4 22 -110 0 -135 -6 -168 -37 -188 -21 -14 -25 -14 -43 2 -22
20 -48 11 -29 -11 28 -34 132 -3 160 48 7 13 15 74 17 141 4 106 6 117 23 117
11 0 19 5 19 11 0 7 -9 9 -21 6 -25 -7 -33 12 -25 59 8 42 30 53 56 29 22 -20
36 -15 27 10 -11 26 -93 20 -122 -10z"/>
<path d="M2838 1363 c-19 -5 -25 -23 -8 -23 6 0 10 -58 10 -155 0 -138 2 -155
18 -164 11 -6 24 -6 35 0 13 8 17 24 17 79 0 58 4 73 23 96 14 16 29 24 35 20
18 -11 15 -22 -19 -61 -29 -33 -31 -38 -20 -63 26 -58 75 -123 102 -137 32
-17 87 -19 109 -5 12 8 11 10 -7 10 -32 0 -84 50 -117 110 l-28 52 22 23 c12
13 22 37 22 55 2 55 -48 67 -94 23 -19 -18 -28 -22 -29 -12 -4 89 -8 141 -11
144 -8 7 -45 12 -60 8z"/>
<path d="M3452 1339 c-56 -28 -71 -86 -29 -113 20 -13 50 2 55 28 3 12 -4 16
-27 16 -35 0 -41 18 -13 42 22 20 59 31 66 20 3 -5 6 -66 7 -136 0 -70 3 -136
6 -146 7 -25 30 -33 55 -19 20 11 21 17 15 154 -5 116 -4 145 8 155 20 16 55
-21 55 -59 0 -42 -17 -81 -35 -81 -8 0 -15 -2 -15 -5 0 -14 101 -192 120 -212
22 -23 61 -30 95 -17 14 6 13 8 -7 18 -13 6 -45 51 -73 98 -27 48 -55 93 -62
99 -9 9 -6 16 13 31 32 26 34 96 3 124 -33 30 -180 32 -237 3z"/>
<path d="M2550 1333 c-47 -24 -68 -63 -52 -97 14 -32 56 -36 72 -6 12 22 -2
34 -31 28 -24 -5 -22 39 3 56 27 19 67 21 74 3 5 -13 -5 -68 -27 -149 -8 -33
-14 -38 -39 -38 -17 0 -30 -4 -30 -10 0 -5 11 -10 25 -10 31 0 32 -17 2 -61
-23 -35 -61 -49 -80 -30 -15 15 -27 14 -27 -3 0 -8 7 -17 16 -20 51 -20 102
10 128 74 16 40 18 41 58 38 39 -3 42 -5 56 -46 16 -48 47 -63 90 -42 21 10
23 14 10 17 -9 2 -21 18 -27 35 -14 40 -14 38 9 38 11 0 20 5 20 10 0 6 -11
10 -24 10 -21 0 -26 10 -51 95 -16 53 -34 100 -42 106 -23 20 -95 21 -133 2z
m109 -137 c15 -62 15 -63 -19 -68 -20 -3 -30 0 -30 8 0 28 24 113 30 109 4 -3
13 -25 19 -49z"/>
<path d="M4682 1260 c-39 -24 -42 -24 -42 -5 0 10 -10 15 -33 15 -39 0 -51 -8
-37 -25 5 -6 11 -54 12 -106 l3 -94 30 0 30 0 3 87 c2 62 7 90 18 99 25 20 33
-1 36 -96 l3 -90 30 0 30 0 3 75 c3 101 8 120 32 120 18 0 20 -7 20 -90 0 -85
1 -91 24 -101 17 -8 30 -8 47 2 15 7 19 14 11 17 -8 2 -12 29 -12 86 0 118
-32 154 -93 106 l-26 -21 -21 21 c-25 25 -27 25 -68 0z"/>
<path d="M4982 1273 c-35 -14 -36 -73 -1 -73 21 0 25 20 7 38 -9 9 -8 13 5 18
30 11 52 0 55 -29 3 -24 -2 -30 -35 -43 -21 -9 -46 -23 -55 -32 -21 -17 -24
-72 -6 -90 15 -15 70 -16 85 -1 8 8 16 7 30 -2 22 -13 73 -5 73 11 0 6 -4 10
-10 10 -6 0 -10 33 -10 78 0 42 -4 82 -8 88 -18 28 -90 43 -130 27z m66 -149
c-2 -31 -7 -39 -23 -39 -27 0 -33 50 -9 76 23 26 36 11 32 -37z"/>
<path d="M5186 1265 c-26 -26 -19 -57 24 -109 22 -26 40 -50 40 -51 0 -16 -36
-34 -58 -29 -26 5 -26 5 -8 -10 27 -22 89 -21 109 2 30 32 21 74 -23 117 -38
38 -50 68 -31 79 5 4 16 3 25 0 12 -5 14 -10 6 -19 -14 -17 7 -32 23 -16 8 8
9 16 1 29 -15 24 -86 28 -108 7z"/>
<path d="M4201 1256 c-56 -31 -70 -132 -25 -185 22 -26 33 -31 69 -31 62 0 95
31 102 93 7 58 -11 103 -48 122 -34 18 -66 18 -98 1z m69 -25 c11 -21 14 -129
4 -155 -8 -21 -40 -21 -48 0 -11 28 -6 150 6 162 17 17 26 15 38 -7z"/>
<path d="M4391 1261 c-9 -6 -10 -11 -2 -15 7 -4 11 -40 11 -91 0 -103 4 -115
41 -115 l29 0 0 84 c0 93 11 113 56 102 22 -6 25 -4 22 16 -4 31 -43 36 -60 9
-12 -19 -12 -19 -26 0 -14 20 -47 25 -71 10z"/>
<path d="M3838 1244 c-54 -29 -74 -109 -41 -164 30 -51 102 -66 144 -30 l24
20 -32 -6 c-26 -5 -37 -1 -58 20 -15 15 -25 32 -23 39 3 7 28 27 56 46 52 33
63 56 40 79 -16 16 -77 14 -110 -4z m65 -25 c3 -13 -2 -28 -14 -40 -25 -25
-39 -24 -39 2 0 50 42 80 53 38z"/>
<path d="M3124 1238 c-32 -15 -49 -55 -48 -111 0 -43 5 -54 32 -79 44 -38 93
-38 132 1 34 34 45 68 35 117 -13 71 -84 105 -151 72z m76 -34 c13 -33 13
-120 0 -145 -26 -48 -60 -1 -60 82 0 81 38 121 60 63z"/>
<path d="M4318 803 c-19 -5 -24 -19 -8 -25 5 -2 10 -66 11 -147 0 -80 3 -151
6 -158 3 -7 18 -13 34 -13 l29 0 0 163 c0 189 -4 198 -72 180z"/>
<path d="M4715 801 c-3 -5 -1 -12 5 -16 6 -4 10 -65 10 -154 0 -159 6 -180 50
-166 18 6 20 15 20 77 0 55 4 76 21 99 20 28 49 39 49 19 0 -20 -30 -69 -47
-79 -17 -9 -16 -14 12 -67 17 -32 45 -72 63 -91 28 -28 39 -33 82 -33 27 0 52
5 55 10 3 6 -4 10 -16 10 -26 0 -95 69 -123 123 -19 37 -19 37 2 60 30 32 37
70 17 91 -23 23 -49 20 -84 -10 l-31 -26 0 59 c0 89 -6 103 -46 103 -18 0 -35
-4 -39 -9z"/>
<path d="M2948 783 c-19 -5 -25 -23 -8 -23 6 0 11 -64 12 -157 l3 -158 33 -3
32 -3 0 156 c0 89 -4 165 -10 176 -10 18 -26 22 -62 12z"/>
<path d="M4612 771 c-23 -14 -10 -46 19 -49 33 -4 48 26 23 45 -21 15 -25 16
-42 4z"/>
<path d="M2539 755 c-51 -16 -74 -37 -84 -76 -11 -46 46 -79 75 -44 16 19 3
37 -23 33 -16 -2 -23 3 -25 20 -3 18 5 26 43 43 26 11 48 19 50 17 1 -1 7 -73
11 -158 8 -137 11 -155 27 -158 41 -8 47 12 47 170 l0 151 28 -6 c15 -3 35 -9
46 -13 14 -5 17 -3 14 12 -3 17 -14 19 -83 21 -47 1 -99 -4 -126 -12z"/>
<path d="M4492 735 c-7 -14 -23 -30 -37 -37 -25 -11 -34 -28 -15 -28 6 0 10
-34 10 -83 0 -96 14 -127 59 -127 37 0 61 25 31 33 -18 5 -20 13 -20 96 l0 91
28 0 c53 0 61 -16 64 -120 3 -83 5 -95 22 -98 10 -2 23 1 29 7 13 13 10 201
-4 217 -10 12 -28 12 -60 -1 -11 -4 -15 0 -15 14 1 11 -3 19 -9 18 -5 -1 -9
-8 -7 -14 2 -8 -7 -13 -23 -13 -22 0 -25 4 -25 35 0 41 -12 45 -28 10z"/>
<path d="M5002 684 c-25 -18 -29 -52 -6 -61 22 -8 42 13 26 29 -19 19 -14 28
17 28 21 0 32 -6 36 -20 9 -27 0 -37 -50 -61 -99 -47 -73 -159 29 -121 20 8
34 8 40 2 15 -15 52 -12 66 5 7 9 8 15 2 15 -5 0 -11 35 -14 81 -3 70 -6 83
-27 100 -28 23 -88 25 -119 3z m78 -121 c0 -46 -13 -68 -34 -60 -19 8 -22 67
-4 85 23 23 38 13 38 -25z"/>
<path d="M5205 676 c-19 -28 -12 -48 36 -104 32 -36 36 -54 15 -71 -10 -8 -22
-8 -42 -1 l-29 10 24 -20 c26 -23 79 -26 104 -7 9 6 20 26 23 44 5 28 1 38
-42 83 -43 46 -46 52 -32 67 20 19 38 10 31 -17 -4 -14 0 -20 10 -20 23 0 30
16 17 40 -17 31 -94 28 -115 -4z"/>
<path d="M4017 684 c-3 -3 -3 -28 0 -54 7 -60 -12 -120 -37 -120 -15 0 -21 12
-30 58 -24 114 -30 122 -86 108 -22 -6 -23 -8 -9 -22 8 -8 15 -28 15 -43 0
-15 6 -49 14 -75 44 -144 139 -100 161 75 5 42 3 58 -8 67 -7 6 -17 9 -20 6z"/>
<path d="M4123 680 c-22 -9 -39 -43 -28 -60 9 -15 45 -12 45 3 0 7 -5 18 -12
25 -9 9 -8 13 5 18 30 11 52 0 55 -28 3 -24 -2 -30 -35 -45 -21 -9 -46 -24
-55 -32 -18 -14 -24 -66 -10 -87 13 -21 50 -25 81 -10 19 10 32 12 36 6 8 -13
62 -13 70 -1 3 5 1 12 -5 16 -5 3 -10 42 -10 85 0 73 -2 80 -26 99 -28 22 -73
26 -111 11z m67 -139 c0 -43 -19 -68 -38 -49 -16 16 -15 61 0 76 23 23 38 13
38 -27z"/>
<path d="M3492 664 c-25 -18 -29 -52 -6 -61 23 -9 40 13 24 31 -10 13 -9 17 3
22 30 11 52 0 55 -29 3 -24 -2 -29 -40 -46 -56 -24 -70 -42 -66 -83 4 -46 47
-68 85 -43 18 12 28 14 36 6 13 -13 64 -15 72 -2 3 5 1 12 -5 16 -5 3 -10 40
-10 81 0 66 -3 78 -25 99 -29 29 -88 34 -123 9z m76 -136 c-2 -35 -7 -43 -23
-43 -22 0 -30 24 -21 61 4 15 14 24 27 24 18 0 20 -5 17 -42z"/>
<path d="M3708 669 c-30 -17 -22 -64 17 -108 54 -60 41 -109 -23 -82 l-27 11
24 -20 c28 -24 78 -26 109 -4 35 24 29 67 -18 118 -44 48 -51 76 -19 76 16 0
19 -4 14 -20 -8 -25 22 -28 32 -4 13 35 -66 59 -109 33z"/>
<path d="M2782 650 c-94 -58 -68 -210 37 -210 41 0 91 17 91 31 0 5 -11 3 -25
-3 -22 -10 -30 -8 -53 9 -45 33 -40 57 17 95 35 23 51 40 51 55 0 44 -63 56
-118 23z m68 -41 c0 -17 -34 -49 -52 -49 -14 0 -9 45 8 68 13 18 19 21 30 11
8 -6 14 -20 14 -30z"/>
<path d="M3096 654 c-20 -20 -20 -53 0 -61 22 -8 42 13 26 29 -17 17 -15 25 8
31 24 6 52 -19 48 -42 -2 -9 -25 -27 -52 -41 -60 -30 -77 -66 -52 -105 18 -27
53 -33 88 -14 14 8 23 8 31 0 16 -16 52 -14 67 4 9 10 9 15 1 15 -7 0 -11 26
-11 74 0 98 -20 126 -90 126 -31 0 -54 -6 -64 -16z m84 -123 c0 -39 -20 -68
-40 -56 -14 9 -13 68 2 83 23 23 38 13 38 -27z"/>
<path d="M3304 575 c-12 -30 4 -48 37 -41 18 3 42 6 55 6 19 0 24 5 24 25 0
24 -3 25 -55 25 -40 0 -57 -4 -61 -15z"/>
</g>
</svg>
